<?xml version="1.0" standalone="no"?>
<!DOCTYPE svg PUBLIC "-//W3C//DTD SVG 20010904//EN"
 "http://www.w3.org/TR/2001/REC-SVG-20010904/DTD/svg10.dtd">
<svg version="1.0" xmlns="http://www.w3.org/2000/svg"
 width="321.000000pt" height="215.000000pt" viewBox="0 0 321.000000 215.000000"
 preserveAspectRatio="xMidYMid meet">

<g transform="translate(0.000000,215.000000) scale(0.100000,-0.100000)"
fill="#000000" stroke="none">
<path d="M1410 1881 c-105 -23 -205 -68 -285 -127 -33 -25 -100 -68 -150 -96
-266 -149 -516 -376 -619 -561 -97 -172 -87 -378 25 -569 l28 -48 -49 0 c-128
0 -232 -84 -274 -222 -4 -13 -16 -18 -46 -18 -33 0 -40 -3 -40 -20 0 -17 7
-20 39 -20 32 0 41 -4 46 -22 4 -13 21 -38 38 -56 81 -85 336 -98 461 -24 26
15 45 19 75 15 53 -7 122 19 155 58 23 27 29 29 102 29 67 0 81 -3 110 -25 59
-45 110 -58 229 -59 99 0 117 3 175 28 123 53 196 53 320 0 55 -23 80 -28 160
-28 120 -1 153 6 225 49 52 32 65 35 132 35 70 0 76 -2 99 -29 33 -39 102 -65
155 -58 30 4 49 0 75 -15 52 -30 131 -48 220 -48 137 0 236 42 271 116 16 32
19 34 70 34 46 0 53 3 53 20 0 16 -8 19 -56 22 l-56 3 -21 54 c-39 107 -145
181 -257 181 l-46 0 43 88 c59 119 77 196 70 302 -6 107 -36 190 -104 291
-115 169 -368 384 -608 515 -38 21 -92 56 -119 77 -67 52 -128 82 -233 113
-120 36 -291 42 -413 15z m370 -46 c87 -21 236 -95 285 -143 124 -119 188
-250 229 -471 20 -107 21 -351 2 -457 -8 -44 -25 -142 -36 -219 -27 -175 -43
-233 -80 -283 -38 -53 -77 -79 -146 -97 -106 -27 -204 -16 -318 35 -72 33
-184 32 -258 -2 -110 -51 -230 -60 -342 -28 -87 26 -164 140 -181 270 -4 30
-20 133 -36 229 -49 290 -36 540 36 741 39 107 79 173 154 252 54 58 82 78
165 118 59 29 132 55 176 64 90 18 254 14 350 -9z m441 -242 c13 -16 12 -17
-3 -4 -10 7 -18 15 -18 17 0 8 8 3 21 -13z m-1275 -41 c-4 -3 -12 0 -19 8 -9
10 -9 11 1 6 7 -5 12 -1 13 11 1 17 2 17 6 0 3 -10 2 -21 -1 -25z m1357 -8
c28 -20 51 -41 49 -47 -2 -5 0 -23 4 -40 l6 -30 17 22 c12 15 22 20 35 15 11
-4 14 -9 7 -14 -20 -12 -1 -64 27 -78 35 -16 75 -16 67 1 -4 6 2 2 13 -10 11
-12 22 -20 24 -18 2 3 22 -14 45 -38 31 -32 38 -47 32 -62 -4 -11 -5 -30 -2
-42 5 -21 2 -23 -41 -23 -34 0 -46 -4 -46 -15 0 -8 -7 -15 -15 -15 -8 0 -15
-7 -15 -15 0 -8 7 -15 15 -15 8 0 15 -7 15 -15 0 -11 11 -15 40 -15 37 0 39 2
46 35 9 52 25 60 81 41 36 -12 113 -146 115 -201 1 -19 5 -32 10 -29 4 3 8 -6
8 -20 0 -19 -4 -24 -16 -19 -13 5 -14 0 -9 -31 7 -34 6 -36 -19 -36 -25 0 -26
-2 -26 -64 0 -36 5 -68 10 -71 6 -3 10 -18 10 -33 0 -22 2 -24 11 -12 9 13 10
13 6 0 -2 -8 -11 -14 -19 -12 -11 1 -15 -6 -14 -25 2 -36 -12 -65 -26 -57 -7
5 -9 2 -5 -8 3 -9 -1 -24 -9 -35 -14 -17 -14 -17 -7 1 4 13 3 17 -5 12 -15 -9
-17 45 -2 62 7 9 7 9 -2 2 -7 -5 -25 -10 -40 -10 -28 0 -28 -1 -28 -60 0 -62
2 -65 48 -63 10 1 9 -3 -2 -16 -9 -10 -16 -24 -16 -33 0 -22 -11 -29 -27 -17
-9 8 -13 8 -13 1 0 -6 4 -14 10 -17 13 -8 -10 -45 -28 -45 -7 0 -10 -5 -7 -10
4 -6 11 -7 17 -4 5 4 4 -4 -3 -17 -7 -13 -14 -29 -15 -34 -1 -6 -12 -26 -24
-45 -12 -19 -20 -28 -17 -20 3 11 -2 16 -15 17 -17 2 -18 0 -6 -14 9 -12 10
-15 1 -9 -7 4 -13 2 -13 -3 0 -6 -5 -11 -11 -11 -6 0 -8 7 -5 16 5 13 4 14 -7
5 -8 -6 -26 -12 -41 -13 -30 -3 -35 -14 -8 -21 16 -4 16 -5 0 -6 -10 0 -22 8
-28 20 -7 11 -18 18 -25 15 -9 -3 -12 0 -9 8 3 8 -4 16 -15 19 -12 3 -21 13
-21 23 0 17 1 17 13 -1 13 -17 14 -16 20 14 5 25 11 31 32 31 20 0 25 5 25 25
0 21 -5 25 -30 25 -29 0 -30 2 -30 44 0 24 -3 65 -7 92 l-7 49 -7 -35 c-5 -28
-7 -23 -8 28 -1 49 2 62 14 62 10 0 15 11 15 35 0 24 -5 35 -15 35 -18 0 -18
1 0 36 21 41 20 86 -2 82 -10 -2 -21 -16 -24 -33 -6 -26 -7 -24 -8 15 0 32 2
41 9 30 8 -13 10 -12 10 3 0 14 9 17 50 17 38 0 50 4 50 15 0 10 -10 15 -27
15 -55 0 -73 10 -63 34 4 13 4 29 -2 40 -5 9 -7 24 -4 33 6 14 8 14 19 -1 9
-12 22 -16 38 -13 23 4 23 4 -3 6 -21 1 -28 6 -28 21 0 11 5 20 10 20 6 0 10
11 10 25 0 30 -16 33 -25 5 -7 -22 -24 -27 -26 -7 -8 67 -7 90 1 77 14 -22 20
-8 13 33 -3 22 -11 37 -19 37 -8 0 -14 10 -14 24 0 13 -3 37 -6 54 -6 28 -4
29 20 25 32 -6 35 12 4 22 -13 4 -26 7 -29 6 -4 0 -7 10 -7 22 -1 66 -7 105
-13 101 -5 -3 -6 -12 -3 -22 7 -26 -12 19 -24 56 -6 17 -6 30 -1 26 5 -3 9 0
9 5 0 6 -7 11 -15 11 -8 0 -15 8 -15 17 0 9 -8 25 -17 36 -10 11 -13 17 -7 14
7 -4 14 0 18 8 3 8 -3 19 -12 24 -9 6 -14 11 -9 11 4 0 31 -16 60 -36z m-1393
-16 c0 -6 7 -4 17 3 14 12 14 10 -2 -21 -22 -44 -30 -52 -21 -23 10 30 -1 48
-20 32 -11 -9 -14 -9 -14 0 0 7 -5 9 -12 5 -7 -4 -8 -3 -4 5 4 6 12 9 17 6 5
-4 9 -2 9 4 0 6 7 8 15 5 8 -4 15 -11 15 -16z m-106 -43 c-4 -8 -11 -15 -16
-15 -6 0 -5 6 2 15 7 8 14 15 16 15 2 0 1 -7 -2 -15z m-34 -25 c0 -5 -10 -15
-22 -21 l-23 -12 20 21 c23 24 25 25 25 12z m-53 -70 c-1 -15 -4 -17 -16 -7
-12 10 -14 9 -8 -5 6 -17 -3 -24 -16 -12 -8 9 23 55 33 49 5 -3 8 -14 7 -25z
m80 8 c-3 -8 -6 -5 -6 6 -1 11 2 17 5 13 3 -3 4 -12 1 -19z m80 -10 c-3 -8 -6
-5 -6 6 -1 11 2 17 5 13 3 -3 4 -12 1 -19z m-7 -28 c0 -5 -8 -6 -19 -3 -17 4
-18 1 -12 -34 10 -50 2 -114 -13 -112 -23 3 -36 -1 -36 -12 0 -6 9 -9 20 -6
16 4 20 0 20 -19 0 -17 -4 -22 -15 -18 -15 6 -21 -7 -8 -19 11 -12 14 -80 3
-87 -12 -7 -17 -184 -6 -217 4 -12 2 -24 -4 -28 -14 -9 -13 -62 3 -68 10 -4
10 -7 0 -18 -7 -7 -13 -28 -13 -47 0 -22 4 -32 13 -30 7 3 14 33 18 79 6 72 6
72 4 -18 -2 -69 -6 -96 -19 -108 -22 -22 -20 -57 4 -77 19 -17 19 -15 23 45 2
34 3 4 4 -68 0 -72 -3 -143 -7 -160 -8 -30 -8 -30 -9 8 -1 35 -17 51 -26 24
-9 -24 -10 -137 -2 -137 4 0 6 -4 2 -9 -3 -6 -15 -8 -28 -6 -19 4 -20 3 -5 -8
14 -11 13 -15 -14 -30 -16 -9 -42 -16 -56 -16 -24 2 -24 2 -4 6 12 2 22 11 22
19 0 18 -32 32 -38 16 -2 -7 -10 -12 -18 -12 -17 0 -19 -17 -1 -23 9 -4 9 -6
0 -6 -6 -1 -18 8 -26 19 -8 11 -17 17 -22 12 -4 -4 -5 5 -1 20 5 21 3 26 -8
22 -18 -7 -35 23 -30 54 2 13 0 21 -5 17 -6 -3 -15 5 -22 17 -12 22 -11 22 6
8 17 -14 17 -13 8 5 -6 11 -9 34 -8 52 2 20 -2 34 -12 37 -8 3 -12 10 -9 15 3
5 -1 12 -9 15 -9 3 -20 17 -25 32 -7 16 -16 24 -24 21 -24 -10 -39 18 -24 44
10 17 10 23 1 26 -7 3 -13 9 -13 15 0 5 -8 17 -17 26 -15 16 -16 15 -10 -13 6
-23 2 -19 -17 17 -15 29 -22 55 -19 69 4 12 2 20 -3 16 -5 -3 -8 13 -7 36 2
35 1 38 -6 17 -6 -18 -9 0 -9 60 0 48 3 72 7 55 6 -31 31 -47 31 -20 0 9 9 15
25 15 16 0 25 -6 25 -15 0 -8 5 -15 11 -15 5 0 7 5 4 10 -3 6 1 13 9 16 13 5
16 26 16 116 l0 110 -24 -4 c-19 -4 -24 -1 -23 13 1 10 4 16 8 14 3 -3 15 3
25 11 18 15 18 15 -4 11 -12 -3 -20 -1 -16 4 10 16 114 11 120 -6 4 -10 20
-15 45 -15 36 0 39 2 39 28 0 36 16 52 52 52 l28 0 0 80 c0 76 1 80 23 81 41
2 90 9 95 13 6 7 32 -5 32 -14z m-224 -22 c-4 6 -3 12 2 12 16 0 22 -29 12
-56 l-10 -25 -27 25 c-22 21 -24 27 -13 41 10 12 16 13 28 3 13 -10 14 -10 8
0z m-57 -41 c-2 -1 -13 -9 -24 -17 -19 -14 -19 -14 -6 3 7 9 18 17 24 17 6 0
8 -1 6 -3z m-56 -49 c-4 -7 -8 -15 -8 -18 -1 -3 -8 -18 -17 -35 -17 -29 -17
-29 -18 -6 0 14 10 35 22 48 23 25 34 30 21 11z m2147 -28 c6 -11 8 -20 6 -20
-3 0 -10 9 -16 20 -6 11 -8 20 -6 20 3 0 10 -9 16 -20z m-2280 -191 c0 -11 -5
-17 -10 -14 -6 4 -15 -8 -21 -25 -6 -17 -13 -29 -16 -27 -6 7 28 87 38 87 5 0
9 -9 9 -21z m-30 -97 c0 -10 -7 -19 -15 -19 -8 0 -15 7 -15 14 0 8 5 11 10 8
6 -3 10 -1 10 4 0 6 2 11 5 11 3 0 5 -8 5 -18z m447 -49 c-3 -10 -5 -2 -5 17
0 19 2 27 5 18 2 -10 2 -26 0 -35z m2020 -110 c-2 -21 -4 -6 -4 32 0 39 2 55
4 38 2 -18 2 -50 0 -70z m-482 -289 c0 -96 -3 -165 -7 -152 -13 49 -9 328 6
328 1 0 1 -79 1 -176z m-1870 -34 c9 -16 13 -30 11 -30 -3 0 -12 14 -21 30 -9
17 -13 30 -11 30 3 0 12 -13 21 -30z m437 -117 c11 -35 24 -65 29 -68 23 -15
5 -25 -42 -25 -51 0 -51 0 -45 28 4 15 10 70 14 122 5 91 6 93 15 50 5 -25 18
-73 29 -107z m1392 -65 c8 -28 8 -28 -43 -28 -54 0 -59 4 -37 33 8 10 21 46
30 80 8 34 18 76 23 92 5 23 9 9 13 -60 4 -49 10 -102 14 -117z m-1818 38 c36
-74 72 -140 80 -147 13 -10 11 -15 -13 -30 -44 -30 -53 -25 -53 29 0 43 -21
95 -33 82 -3 -3 -1 -25 5 -50 7 -31 7 -54 -1 -72 -10 -28 -11 -28 -102 -28
-83 0 -90 2 -83 18 12 26 11 115 -2 119 -8 3 -11 -13 -11 -47 1 -34 -4 -56
-16 -67 -15 -15 -19 -15 -61 1 -81 31 -105 89 -70 172 42 101 121 154 232 154
l63 0 65 -134z m2430 110 c36 -17 61 -37 81 -67 80 -121 70 -196 -33 -235 -42
-16 -46 -16 -61 -1 -12 11 -17 33 -16 67 0 34 -3 50 -11 47 -13 -4 -14 -93 -2
-120 8 -16 2 -18 -85 -15 l-93 3 -10 33 c-6 22 -5 45 2 69 13 43 7 56 -14 29
-8 -11 -14 -41 -14 -68 0 -52 -6 -56 -51 -33 l-29 16 30 44 c16 24 30 46 30
48 0 9 82 182 93 195 17 22 126 15 183 -12z m-2396 -26 c5 0 7 -7 3 -16 -6
-15 -7 -15 -19 1 -7 9 -10 24 -6 33 6 15 7 15 10 0 2 -10 7 -18 12 -18z"/>
<path d="M1074 1210 c-83 -33 -85 -173 -2 -216 101 -52 216 63 164 164 -27 53
-102 77 -162 52z"/>
<path d="M1970 1193 c-36 -32 -50 -95 -31 -140 15 -35 69 -73 105 -73 100 0
158 103 106 188 -36 59 -127 72 -180 25z"/>
<path d="M1540 774 c-77 -14 -130 -60 -130 -114 0 -32 28 -92 58 -123 79 -84
186 -75 259 21 60 79 53 156 -16 192 -38 19 -128 31 -171 24z"/>
<path d="M2500 1331 c0 -27 50 -64 92 -68 38 -3 38 -3 18 17 -11 11 -24 20
-30 20 -5 0 -10 6 -10 14 0 12 -16 21 -57 31 -7 2 -13 -5 -13 -14z"/>
<path d="M2570 1246 c0 -9 7 -16 16 -16 17 0 14 22 -4 28 -7 2 -12 -3 -12 -12z"/>
<path d="M2701 1089 c-7 -15 -11 -49 -9 -76 3 -41 6 -48 26 -51 14 -2 22 2 22
11 0 8 7 20 15 27 17 14 20 60 4 60 -6 0 -9 12 -7 28 4 39 -34 40 -51 1z"/>
<path d="M2790 1000 c0 -5 5 -10 11 -10 5 0 7 5 4 10 -3 6 -8 10 -11 10 -2 0
-4 -4 -4 -10z"/>
<path d="M2760 989 c0 -5 5 -7 10 -4 6 3 10 8 10 11 0 2 -4 4 -10 4 -5 0 -10
-5 -10 -11z"/>
<path d="M2773 953 c9 -2 23 -2 30 0 6 3 -1 5 -18 5 -16 0 -22 -2 -12 -5z"/>
<path d="M2732 900 c0 -19 2 -27 5 -17 2 9 2 25 0 35 -3 9 -5 1 -5 -18z"/>
<path d="M2752 895 c0 -16 2 -22 5 -12 2 9 2 23 0 30 -3 6 -5 -1 -5 -18z"/>
<path d="M2450 885 c0 -8 7 -15 15 -15 8 0 15 7 15 15 0 8 -7 15 -15 15 -8 0
-15 -7 -15 -15z"/>
<path d="M2413 783 c9 -2 25 -2 35 0 9 3 1 5 -18 5 -19 0 -27 -2 -17 -5z"/>
<path d="M2745 589 c-4 -6 -3 -15 3 -21 6 -6 11 -4 15 6 7 18 -9 31 -18 15z"/>
<path d="M2586 325 c-3 -9 -6 -22 -5 -28 0 -7 5 -1 10 12 5 13 8 26 5 28 -2 2
-6 -3 -10 -12z"/>
<path d="M2600 300 c0 -5 5 -10 11 -10 5 0 7 5 4 10 -3 6 -8 10 -11 10 -2 0
-4 -4 -4 -10z"/>
<path d="M2590 250 c-6 -11 -8 -20 -6 -20 3 0 10 9 16 20 6 11 8 20 6 20 -3 0
-10 -9 -16 -20z"/>
<path d="M2478 213 c6 -2 18 -2 25 0 6 3 1 5 -13 5 -14 0 -19 -2 -12 -5z"/>
<path d="M808 1303 c7 -3 16 -2 19 1 4 3 -2 6 -13 5 -11 0 -14 -3 -6 -6z"/>
<path d="M728 1163 c7 -3 16 -2 19 1 4 3 -2 6 -13 5 -11 0 -14 -3 -6 -6z"/>
<path d="M781 1084 c0 -11 3 -14 6 -6 3 7 2 16 -1 19 -3 4 -6 -2 -5 -13z"/>
<path d="M560 1045 c0 -8 -7 -15 -15 -15 -8 0 -15 -6 -15 -14 0 -8 -8 -17 -17
-19 -10 -3 10 -5 45 -6 56 -1 62 1 62 19 0 11 -7 20 -15 20 -8 0 -15 7 -15 15
0 8 -7 15 -15 15 -8 0 -15 -7 -15 -15z"/>
<path d="M481 974 c0 -11 3 -14 6 -6 3 7 2 16 -1 19 -3 4 -6 -2 -5 -13z"/>
<path d="M370 671 c0 -6 4 -12 8 -15 5 -3 9 1 9 9 0 8 -4 15 -9 15 -4 0 -8 -4
-8 -9z"/>
<path d="M421 644 c0 -11 3 -14 6 -6 3 7 2 16 -1 19 -3 4 -6 -2 -5 -13z"/>
<path d="M445 520 c3 -5 8 -10 11 -10 2 0 4 5 4 10 0 6 -5 10 -11 10 -5 0 -7
-4 -4 -10z"/>
<path d="M822 465 c0 -16 2 -22 5 -12 2 9 2 23 0 30 -3 6 -5 -1 -5 -18z"/>
<path d="M725 190 c-8 -13 5 -13 25 0 13 8 13 10 -2 10 -9 0 -20 -4 -23 -10z"/>
</g>
</svg>
