<svg version="1.1" id="Layer_1" xmlns="http://www.w3.org/2000/svg" xmlns:xlink="http://www.w3.org/1999/xlink" x="0px" y="0px"
	 width="100%" viewBox="0 0 512 512" enable-background="new 0 0 512 512" xml:space="preserve">
<path fill="#000000" opacity="1.000000" stroke="none" 
	d="
M442.536987,212.705688 
	C444.386566,221.917984 446.666290,230.665359 447.697388,239.557495 
	C448.436340,245.929855 447.769012,252.498093 447.750275,258.975433 
	C447.636749,298.238800 435.839447,334.142090 413.743195,366.249878 
	C382.569336,411.548218 339.117035,438.864258 284.734253,446.137909 
	C209.771927,456.164093 148.951599,429.669586 103.356529,369.528076 
	C83.350830,343.139832 72.134445,312.680084 68.683273,279.710876 
	C61.663765,212.653229 83.188866,156.192093 133.952896,111.822868 
	C172.431030,78.191887 218.049026,62.744331 269.047852,66.119225 
	C352.697174,71.654800 420.479584,128.792847 441.874451,210.383072 
	C442.043427,211.027435 442.245972,211.663010 442.536987,212.705688 
M114.418236,136.903336 
	C113.537399,137.902863 112.600746,138.858948 111.783760,139.908188 
	C80.122353,180.571045 66.653435,226.465897 72.103180,277.815582 
	C76.410706,318.402802 91.938141,354.442963 119.867485,383.854492 
	C173.346359,440.171448 238.716629,457.999115 313.105591,435.976135 
	C365.141663,420.570831 402.321106,385.950165 425.663757,337.034271 
	C442.721771,301.288177 447.625336,263.584717 440.866394,224.521637 
	C434.841034,189.698303 420.320862,158.769531 396.356110,132.739639 
	C348.933960,81.230835 290.492218,60.486603 221.395874,73.079704 
	C178.378998,80.919701 143.232529,103.226768 114.418236,136.903336 
z"/>
<path fill="#000000" opacity="1.000000" stroke="none" 
	d="
M419.453644,340.364380 
	C394.474274,386.903290 356.903656,417.616791 306.728485,432.658508 
	C286.481873,438.728088 265.626465,440.952759 244.504074,439.259766 
	C176.738220,433.828278 124.098419,394.357605 97.676842,344.658264 
	C67.534622,287.960266 65.689499,229.859253 94.897186,172.646606 
	C122.600677,118.380424 167.837173,84.922157 228.101166,75.225487 
	C293.275940,64.738655 348.588440,85.784149 393.335236,134.241776 
	C415.198456,157.918076 429.096497,185.912643 435.931549,217.257111 
	C444.547058,256.766479 439.978760,295.027344 423.412445,331.880310 
	C422.184143,334.612762 420.880951,337.311523 419.453644,340.364380 
M79.207451,228.587631 
	C77.993500,232.809494 78.279709,237.185165 77.922577,241.491058 
	C74.339111,284.696350 84.717354,324.595947 110.004936,359.474518 
	C151.519531,416.734558 208.264847,442.476013 278.994110,435.564545 
	C311.473511,432.390717 340.550629,419.777588 366.170319,399.859375 
	C404.070953,370.393341 427.370300,331.849091 435.031830,284.269135 
	C440.562775,249.920456 436.916351,216.538971 422.928131,184.548279 
	C391.307404,112.232681 316.112183,67.133026 237.524963,76.255013 
	C194.472031,81.252357 157.940903,99.556206 127.851097,130.489059 
	C101.415504,157.665329 85.265739,190.202332 79.207451,228.587631 
z"/>
<path fill="#000000" opacity="1.000000" stroke="none" 
	d="
M365.161255,192.899536 
	C374.206177,206.375656 379.645142,220.991135 383.117493,236.341171 
	C384.279877,241.479599 386.196625,246.039444 389.005249,250.455399 
	C396.469543,262.191284 400.625580,274.714508 397.389343,288.874542 
	C395.792664,295.860687 392.920715,302.079742 387.833679,307.200470 
	C382.427368,312.642670 377.324738,318.344116 372.766785,324.531342 
	C370.181763,328.040436 367.823914,331.633453 366.654205,335.893005 
	C365.831177,338.890106 364.301208,341.725647 361.631866,343.122711 
	C351.143097,348.612061 343.703033,357.883728 334.254578,364.671326 
	C310.294434,381.883728 283.519531,390.660065 254.225891,389.858246 
	C218.991440,388.893799 188.792206,375.333496 163.389557,350.625122 
	C145.614944,333.336273 130.787567,314.329437 121.967735,290.869598 
	C117.478981,278.929962 117.416321,267.512085 124.920654,257.155579 
	C129.637619,250.645844 130.233292,243.352142 131.570572,236.117813 
	C140.704819,186.703812 184.251785,144.478851 234.203766,136.600830 
	C278.101562,129.677628 316.221924,141.199951 348.343323,172.047501 
	C354.736298,178.186951 360.062164,185.232147 365.161255,192.899536 
M123.109734,279.245178 
	C126.601234,294.930420 133.709549,308.907806 143.264420,321.706757 
	C145.620560,324.862854 148.198471,327.853363 150.674454,330.920013 
	C150.060089,322.851501 145.631882,316.166229 145.538528,308.345459 
	C145.531250,307.735901 145.136490,307.042145 144.732712,306.539429 
	C138.016663,298.177338 142.967743,291.097015 146.757065,283.605438 
	C152.831665,288.298615 156.149536,293.519043 155.573074,300.448547 
	C155.094711,306.199036 156.060104,311.703735 156.316025,317.319580 
	C156.542542,322.290161 157.270325,327.219116 156.515808,332.248108 
	C156.022324,335.537354 157.489761,338.446167 160.153137,340.585785 
	C172.721588,350.682556 191.128723,344.066071 194.706528,328.309723 
	C196.695908,319.548676 195.093414,311.137268 193.118103,302.670593 
	C189.186401,285.818481 183.371048,269.450165 180.143295,252.423096 
	C176.145767,231.335190 178.190048,211.017273 188.383667,191.855331 
	C189.204620,190.312088 189.678558,188.146133 192.860474,187.638779 
	C190.932892,193.741409 189.319016,199.279984 187.429840,204.723022 
	C185.081970,211.487686 182.749268,218.193039 182.272583,225.458252 
	C181.434875,238.225983 182.954376,250.701996 186.305252,262.984924 
	C190.357635,277.839417 194.516510,292.664856 198.892807,308.453583 
	C200.458511,303.499695 198.088608,298.612976 202.148987,294.925171 
	C203.955490,297.255219 202.910812,299.313751 202.599167,301.332214 
	C201.020218,311.558716 207.503723,318.987427 217.773987,318.873138 
	C221.722900,318.829193 225.303207,317.770813 228.688736,315.805725 
	C232.863800,313.382324 237.133942,311.118652 241.259933,308.616058 
	C244.246460,306.804657 246.943695,306.859039 250.174164,308.277466 
	C254.916153,310.359558 259.363129,312.971069 264.009857,315.192780 
	C271.444916,318.747742 279.235077,320.027802 287.261871,317.246490 
	C294.184784,314.847626 295.442047,308.670807 296.877380,302.583313 
	C297.225708,301.106049 297.747711,299.138123 300.176941,300.070770 
	C300.676392,311.131378 294.419556,319.540039 284.175964,321.346466 
	C280.034515,322.076782 276.464203,323.666504 272.766449,325.771606 
	C259.109467,333.546509 244.579132,334.883789 230.078293,328.533630 
	C223.786346,325.778290 218.207306,321.779724 210.901413,321.411224 
	C205.571075,321.142365 202.592361,316.662689 199.797440,311.945404 
	C199.313736,313.047791 198.941559,313.481262 198.974396,313.881439 
	C199.939240,325.639038 196.913071,335.824036 190.917068,346.388855 
	C183.324661,359.766479 183.695358,362.308807 197.226242,369.454773 
	C220.851166,381.931580 245.839859,386.959747 272.486176,383.723785 
	C294.314301,381.072968 313.963654,373.116821 331.667877,360.241425 
	C337.525360,355.981537 336.893066,349.342896 330.330170,346.137146 
	C320.122101,341.150879 314.379883,332.825073 311.844604,322.066498 
	C311.203125,319.344391 310.328644,316.688690 307.977478,315.351715 
	C305.658234,314.032837 302.836578,313.597443 300.122192,312.738647 
	C301.224060,310.408417 303.257446,309.608551 305.099152,308.540466 
	C308.393188,306.630188 310.877594,304.123322 311.394135,300.077423 
	C313.634186,282.531708 318.345825,265.534332 323.318207,248.636749 
	C329.053711,229.145844 327.854126,209.990173 322.022491,190.819397 
	C321.260712,188.315079 319.554688,185.941986 319.912201,182.854111 
	C322.005493,183.726242 322.477234,185.439758 323.320618,186.792831 
	C331.902802,200.561722 332.533142,215.751266 330.759796,231.199356 
	C329.293762,243.969955 324.804352,256.085114 321.853546,268.536865 
	C317.952332,284.999268 312.826294,301.330658 315.338684,318.660980 
	C317.053345,330.488922 322.917389,339.120270 334.202637,343.612579 
	C343.184540,347.188019 351.707123,345.704956 359.134888,339.900482 
	C365.720367,334.754211 364.072693,327.559387 362.806885,320.528748 
	C362.084167,316.514648 360.473663,312.338684 362.796600,307.304138 
	C365.392639,313.229370 365.080322,318.994080 366.857361,324.095428 
	C368.137360,324.210083 368.613800,323.476715 369.098206,322.827606 
	C374.286621,315.875336 380.076447,309.453308 386.025940,303.146606 
	C390.220978,298.699615 392.685883,293.281982 393.735107,287.197662 
	C395.829224,275.054260 392.821747,263.930176 386.280334,253.907196 
	C373.074707,233.673080 359.977570,213.413483 349.540955,191.544449 
	C346.523956,185.222565 341.759094,179.719818 334.957001,177.875595 
	C326.569366,175.601517 319.404358,171.590988 312.303467,166.848053 
	C297.052582,156.661499 279.742401,153.160416 261.724670,151.802170 
	C238.921997,150.083237 218.448013,155.114487 201.200302,170.818649 
	C197.739136,173.970062 194.031830,177.046280 189.440338,178.180527 
	C179.270660,180.692749 172.486374,186.988770 168.009109,196.141479 
	C157.289017,218.056076 144.487579,238.629333 129.297913,257.766663 
	C124.688072,263.574554 122.245316,270.605713 123.109734,279.245178 
M139.363892,237.737854 
	C149.149597,225.147141 155.596237,210.634094 163.093170,196.716309 
	C167.950531,187.698807 173.217682,178.890900 184.252548,176.148361 
	C188.766022,175.026611 192.292358,172.353256 195.730148,169.362625 
	C204.862534,161.418167 214.811783,154.541595 226.651031,151.571030 
	C260.357849,143.113708 291.985107,147.781830 320.857391,167.807739 
	C324.022278,170.002899 327.128723,172.053497 331.075592,172.727341 
	C340.969238,174.416458 347.956970,180.224121 352.648712,188.873917 
	C358.524689,199.706940 364.236603,210.628891 370.037231,221.502914 
	C371.084534,223.466187 372.042206,225.540009 374.488770,226.905655 
	C366.118896,190.205856 324.725128,140.859131 260.092407,139.541367 
	C192.475037,138.162766 143.751755,188.189056 135.872925,242.023331 
	C137.121384,240.505096 138.039749,239.388306 139.363892,237.737854 
M270.585876,323.595764 
	C271.411346,322.851013 272.973267,321.873871 270.647430,321.334290 
	C264.196533,319.837616 258.892578,315.908264 252.970627,313.304718 
	C249.868317,311.940826 246.546326,310.572388 243.356964,312.007507 
	C237.072754,314.835297 231.019867,318.177185 224.708282,321.389404 
	C233.545074,330.631470 256.877960,331.116486 270.585876,323.595764 
M181.517410,348.334412 
	C179.073975,349.710480 175.507507,348.299225 173.667755,351.285156 
	C176.122543,354.936371 176.122543,354.936371 180.010178,357.030884 
	C180.614883,354.026550 184.199188,351.942719 181.517410,348.334412 
z"/>
<path fill="#000000" opacity="1.000000" stroke="none" 
	d="
M372.461792,178.502441 
	C370.335052,175.693344 368.322723,173.239044 366.550659,170.622070 
	C365.264923,168.723343 365.623566,167.737366 368.183136,166.767303 
	C376.195496,163.730713 382.803680,158.531769 387.706909,151.508270 
	C389.303131,149.221863 390.427490,149.243973 391.871094,150.974640 
	C396.031952,155.963104 400.203369,160.957504 404.061523,166.178024 
	C406.255066,169.146118 403.887756,172.011215 398.477997,173.000732 
	C397.847595,169.973572 397.143494,166.902023 394.397552,164.897659 
	C393.032867,163.901505 391.730255,162.557983 390.066437,164.225250 
	C388.645813,165.648880 389.010620,167.252808 390.013824,168.774429 
	C390.287231,169.189056 390.698273,169.516235 390.952118,169.939896 
	C391.822754,171.392929 394.951324,171.497437 393.914490,173.923492 
	C392.854767,176.403152 390.832733,178.162354 387.820648,178.190323 
	C386.261780,176.433487 386.581360,173.934601 384.799744,172.410416 
	C383.328094,171.151367 382.195526,169.784500 380.174988,171.542023 
	C378.371429,173.110840 377.924011,174.625458 379.432831,176.697403 
	C381.608673,179.685333 383.877960,182.473389 387.946350,182.829224 
	C384.959625,189.621628 382.012085,190.233124 378.023895,185.394440 
	C376.222321,183.208633 374.459534,180.990845 372.461792,178.502441 
z"/>
<path fill="#000000" opacity="1.000000" stroke="none" 
	d="
M192.624115,126.084328 
	C192.198914,123.100334 189.614227,122.404320 187.443359,120.559723 
	C190.618790,116.980270 194.216660,115.281136 198.885925,114.264557 
	C199.130890,119.079498 201.480377,122.552353 203.321548,126.215172 
	C204.794846,129.146164 203.900482,130.780594 200.863586,131.026291 
	C198.640060,131.206177 197.268631,132.393951 195.750183,133.731064 
	C190.541611,138.317581 184.657761,139.770782 178.248489,136.595154 
	C171.966568,133.482605 168.960693,127.883049 169.043625,121.176636 
	C169.131042,114.105766 172.894012,108.998962 179.668396,106.343094 
	C187.774048,103.165314 190.858093,104.482285 191.827148,111.635956 
	C190.467285,113.041214 189.121048,111.989594 187.702209,111.697731 
	C182.586685,110.645409 177.641693,115.167068 178.136795,120.345192 
	C178.586456,125.047958 183.225021,130.443680 187.141983,130.422989 
	C189.724701,130.409348 192.070847,129.487610 192.624115,126.084328 
z"/>
<path fill="#000000" opacity="1.000000" stroke="none" 
	d="
M368.822266,138.304489 
	C367.195618,136.049667 365.683319,134.291794 362.826508,135.822769 
	C362.244904,138.761353 364.640594,140.310699 365.875519,142.303009 
	C369.357208,147.920120 369.317413,153.221054 365.529480,156.862503 
	C361.483856,160.751678 355.941956,160.877304 350.465973,157.195068 
	C347.367920,155.111862 345.000885,152.393448 343.293030,149.066910 
	C340.877228,144.361435 342.664612,141.071335 348.652191,139.722214 
	C349.743317,142.855789 348.679688,146.763870 351.758972,149.259933 
	C353.556732,150.717224 355.386658,152.989639 357.727692,150.943954 
	C359.811066,149.123413 357.535858,147.392593 356.574219,145.780228 
	C356.236694,145.214264 355.746277,144.741776 355.355377,144.204971 
	C351.322723,138.667511 351.206665,132.973267 355.043884,129.277359 
	C358.922272,125.541801 365.382263,125.783653 370.465759,130.039017 
	C371.969452,131.297760 373.308746,132.862411 374.376862,134.511337 
	C377.513550,139.353516 376.676605,141.677841 370.995667,144.417328 
	C368.698059,143.073639 370.338715,140.313126 368.822266,138.304489 
z"/>
<path fill="#000000" opacity="1.000000" stroke="none" 
	d="
M157.178528,149.015091 
	C160.419769,150.582870 165.771515,147.269226 167.168304,143.113266 
	C167.474945,142.200882 167.185104,141.095428 168.292923,140.129333 
	C171.293427,140.607880 172.430862,143.265411 174.211838,145.582794 
	C168.422104,152.399887 161.187775,157.355576 155.049286,163.993729 
	C150.221603,153.518539 142.941422,146.671188 134.136551,140.596436 
	C135.039886,137.431961 138.195175,135.868835 140.428192,133.591858 
	C142.758041,131.216110 145.282242,129.031235 147.716202,126.757263 
	C152.206085,122.562531 153.670197,122.955719 156.486877,129.371094 
	C154.140182,130.997314 151.172943,131.855988 149.289276,134.281128 
	C147.772125,136.234360 147.038391,138.190842 149.227661,139.943390 
	C151.544937,141.798416 152.768082,139.532379 154.140625,138.210876 
	C155.323364,137.072113 155.223038,135.015991 156.952728,134.194229 
	C158.723679,134.151794 159.403534,135.691071 160.460068,136.660660 
	C162.858887,138.862061 163.134140,140.514587 159.688400,142.200958 
	C157.237152,143.400620 154.442139,145.175034 157.178528,149.015091 
z"/>
<path fill="#000000" opacity="1.000000" stroke="none" 
	d="
M316.033752,129.025635 
	C313.363251,132.919647 309.881531,132.228928 306.040100,127.356003 
	C314.593475,121.287392 322.813171,114.873619 329.204468,105.793205 
	C335.642395,106.234116 337.282166,108.046997 337.377930,114.983223 
	C337.496735,123.592278 334.866608,132.114944 336.725372,140.790634 
	C337.151703,142.780594 335.540710,143.663193 333.901550,142.818741 
	C330.678467,141.158325 327.018097,140.253433 324.313843,137.663849 
	C327.029083,131.655853 323.736938,128.059128 316.033752,129.025635 
z"/>
<path fill="#000000" opacity="1.000000" stroke="none" 
	d="
M296.825073,106.596817 
	C299.928162,105.605019 301.638184,106.199699 300.920868,109.422638 
	C300.509583,111.270622 300.666809,113.515434 298.549652,114.712280 
	C296.591766,113.957634 294.665375,113.007614 292.628845,112.496475 
	C291.029114,112.094971 289.152832,112.063774 288.578796,114.256790 
	C288.030853,116.350082 288.955505,117.774170 290.907379,118.612122 
	C294.402466,120.112595 297.963135,120.049217 301.474976,118.819649 
	C303.537231,125.301147 301.705505,127.656044 295.782837,126.404732 
	C289.059448,124.984245 282.214264,123.998306 275.581940,121.675095 
	C280.935547,112.049698 282.420807,102.189240 282.358734,91.347893 
	C290.270721,91.936287 297.963745,94.121910 305.430054,95.779030 
	C306.736481,98.118080 305.602936,99.832298 305.275574,101.554108 
	C304.840698,103.841347 303.412750,104.230568 301.722382,102.718254 
	C300.560211,101.678459 299.292358,100.849800 297.820129,100.653404 
	C295.156250,100.298035 291.625153,98.942978 291.153625,103.277565 
	C290.740875,107.072128 294.103546,106.373352 296.825073,106.596817 
z"/>
<path fill="#000000" opacity="1.000000" stroke="none" 
	d="
M211.029724,115.254425 
	C211.882843,110.599289 212.469559,106.323669 213.431412,102.134186 
	C214.035324,99.503700 212.810577,97.387978 211.965332,95.224297 
	C219.229858,91.060928 221.359375,91.603645 225.645294,97.500084 
	C230.585068,104.296021 234.129898,112.113564 240.643478,117.784393 
	C242.225052,119.161354 241.089767,120.714508 239.421738,121.097946 
	C235.924271,121.901932 232.422653,122.980881 228.991638,122.640175 
	C227.117081,121.122261 229.653214,118.003288 226.716888,117.468307 
	C223.525909,116.886948 220.466690,117.772072 217.621155,119.228943 
	C217.149506,119.470421 216.791840,120.282928 216.707108,120.877914 
	C215.861633,126.814514 214.466812,127.791756 208.061386,126.398315 
	C209.425735,122.912201 211.046570,119.485168 211.029724,115.254425 
M218.362411,111.041733 
	C220.044754,113.966324 221.417801,111.855728 222.999344,111.033073 
	C222.493744,109.077599 221.787186,107.520370 219.804581,107.678726 
	C218.366776,107.793579 218.422440,109.260452 218.362411,111.041733 
z"/>
<path fill="#000000" opacity="1.000000" stroke="none" 
	d="
M146.992462,163.911377 
	C150.928360,166.265839 150.674881,168.682266 148.193375,171.762070 
	C143.778946,177.240860 139.626297,182.930603 135.247223,188.685776 
	C128.627609,180.280441 121.493927,173.980515 111.835281,171.084915 
	C110.714676,170.748962 110.017311,169.735992 110.556755,168.804291 
	C112.659431,165.172714 115.041016,161.726395 118.688950,158.589005 
	C121.988098,166.750000 129.282913,169.312744 134.878448,173.740829 
	C137.175537,175.558670 142.334946,170.914871 142.822937,166.704269 
	C142.971603,165.421555 142.845993,164.107071 142.845993,162.811295 
	C144.598923,161.400192 145.583008,162.902512 146.992462,163.911377 
z"/>
<path fill="#000000" opacity="1.000000" stroke="none" 
	d="
M256.351990,100.230682 
	C256.353973,102.025101 256.182831,103.384590 256.391846,104.682869 
	C256.914062,107.926407 254.652710,111.925407 258.596741,114.248062 
	C261.033783,115.683250 266.522888,114.329269 270.233948,111.663834 
	C272.568970,113.891182 271.480408,116.674217 270.949524,118.978493 
	C270.389221,121.410789 267.758331,120.912819 265.842621,120.939445 
	C260.683868,121.011139 255.523178,120.936859 250.363266,120.936943 
	C248.517136,120.936974 246.730316,120.783272 245.303543,119.610794 
	C248.912109,109.801056 248.356918,100.165009 245.558182,89.702454 
	C249.639450,87.953629 254.095612,88.467323 259.193420,89.532570 
	C257.584167,93.180351 255.620483,96.165680 256.351990,100.230682 
z"/>
<path fill="#000000" opacity="1.000000" stroke="none" 
	d="
M263.709625,414.296570 
	C261.702240,417.530823 259.240417,418.867828 255.928543,417.440613 
	C253.341354,416.325684 252.394409,414.143951 252.506805,411.358704 
	C252.627289,408.372864 254.434494,406.806152 256.972260,406.023590 
	C261.358826,404.670990 264.424957,408.237183 263.709625,414.296570 
z"/>
<path fill="#000000" opacity="1.000000" stroke="none" 
	d="
M414.070465,266.239868 
	C410.328430,265.310150 408.382935,263.180328 408.873535,259.689484 
	C409.287323,256.744720 411.358887,254.931946 414.377289,254.844131 
	C417.151794,254.763397 419.310028,256.230225 419.910492,258.974731 
	C420.853668,263.285614 418.529510,265.500031 414.070465,266.239868 
z"/>
<path fill="#000000" opacity="1.000000" stroke="none" 
	d="
M98.700089,255.323822 
	C102.046379,254.230331 104.415726,255.304871 105.808723,257.887299 
	C106.867393,259.849915 106.798752,262.171631 105.222466,263.981323 
	C102.923889,266.620270 100.193520,267.187927 97.349495,264.822754 
	C94.496544,262.450104 94.927277,258.887665 98.700089,255.323822 
z"/>
<path fill="#000000" opacity="1.000000" stroke="none" 
	d="
M411.744934,296.334473 
	C411.644104,298.423859 411.648590,300.297729 409.324158,300.775818 
	C407.095856,299.356964 408.245941,297.647949 409.006287,296.150330 
	C409.633972,294.913971 410.669281,294.675995 411.744934,296.334473 
z"/>
<path fill="#000000" opacity="1.000000" stroke="none" 
	d="
M217.760437,223.491394 
	C220.435562,228.476257 221.758301,233.618668 224.732254,238.174728 
	C227.570755,242.523270 221.667679,250.144226 216.034958,249.642303 
	C212.829727,249.356659 209.777039,249.574585 206.640213,249.987259 
	C199.787201,250.888794 194.450195,247.974869 191.038284,241.690643 
	C186.061096,232.523499 186.120987,232.529037 193.753906,225.488174 
	C199.685989,220.016190 206.681931,219.192810 214.219879,220.370529 
	C215.878876,220.629730 216.622330,222.031006 217.760437,223.491394 
z"/>
<path fill="#000000" opacity="1.000000" stroke="none" 
	d="
M292.401245,246.994751 
	C287.555511,245.884888 282.566956,246.416428 279.540894,241.856400 
	C278.794312,240.731384 277.766083,239.718323 277.875763,238.346893 
	C278.343414,232.500732 279.698761,226.728256 282.259613,221.566620 
	C283.831207,218.398987 288.309174,218.463654 291.575134,217.795837 
	C299.583069,216.158401 310.343964,221.628906 314.098633,228.756821 
	C314.378296,229.287720 314.474060,230.018738 314.392731,230.621277 
	C312.875732,241.860352 304.695618,248.100845 292.401245,246.994751 
z"/>
<path fill="#000000" opacity="1.000000" stroke="none" 
	d="
M256.570740,267.922485 
	C265.083038,271.303009 266.296875,276.116577 261.582062,283.603821 
	C258.563049,288.398071 255.018478,292.373566 249.922501,294.809387 
	C247.233902,296.094513 246.147903,298.287323 245.563339,301.309906 
	C244.485413,296.473511 241.122833,294.182190 237.319916,291.980316 
	C233.031815,289.497528 230.477280,285.162476 228.381271,280.866486 
	C225.609818,275.186096 229.032867,269.600891 235.893463,267.804413 
	C242.648560,266.035553 249.411438,266.564850 256.570740,267.922485 
z"/>
<path fill="#000000" opacity="1.000000" stroke="none" 
	d="
M332.809204,248.911407 
	C340.015991,228.511337 340.064026,227.071472 334.711517,195.569305 
	C345.741180,208.245850 340.656647,249.904968 324.835419,270.701752 
	C326.689392,262.367706 330.534851,256.114807 332.809204,248.911407 
z"/>
<path fill="#000000" opacity="1.000000" stroke="none" 
	d="
M169.098663,247.567505 
	C167.539825,241.144867 167.165512,235.094910 168.497620,228.941360 
	C169.706619,236.668030 169.940338,244.497879 172.273071,252.058792 
	C174.619064,259.662720 178.784897,266.460663 181.121338,274.051636 
	C175.295029,266.210785 171.048523,257.654449 169.098663,247.567505 
z"/>
<path fill="#000000" opacity="1.000000" stroke="none" 
	d="
M267.936493,213.169891 
	C268.937195,210.399780 267.216919,207.857071 267.582733,204.926926 
	C271.699463,208.348465 271.791412,211.501526 268.369080,214.276855 
	C268.358765,214.285248 268.128174,214.073700 268.053040,213.936172 
	C267.976501,213.796066 267.965118,213.620407 267.936493,213.169891 
z"/>
</svg>